:SAMPLES-PER-SECOND 30
:FULLY-SPECIFIED
:DEGREES
122
root  -41.682 36.7464 25.8231 54.6597 -79.7594 -21.6718
RightUpLeg  -71.545 -21.3032 20.6594
RightLeg  37.7755 2.38119 1.70758
RightFoot  -2.52833 0.270288 -3.72634
RightToes  0.00048216 0.542163 -0.142577
Spine  69.7401 -3.06556 6.55017
Spine1  9.79161 3.37378 -5.67058
HEad  -35.5948 -6.85997 1.09664
LeftShoulder1  5.2957 -25.6799 -10.7915
LeftArm  -80.8331 -55.8476 19.4122
LeftForeArm  -2.05518 -20.5678 -3.5452
LeftHand  -0.25398 0.0180481 5.50724
RightShoulder  2.65382 13.6595 7.9681
RightArm  -60.9704 49.4092 -9.32294
RightForeArm  -24.7106 28.1474 7.27191
RightHand  0.66349 6.54979 6.02187
LeftUpLeg  -82.6324 29.2436 -40.7727
LeftLeg  34.6917 -3.94564 -2.57023
LeftFoot  -1.28778 -1.46766 16.6329
LeftToes  1.06244e-005 4.65856e-005 -8.18505e-006
123
root  -41.3957 36.9938 25.4646 50.5645 -78.7589 -19.8357
RightUpLeg  -68.4198 -21.6867 19.9848
RightLeg  36.1506 1.46565 0.885669
RightFoot  -2.26061 0.286818 -3.80111
RightToes  0.00048216 0.542163 -0.142577
Spine  68.3769 -2.98627 6.4262
Spine1  10.4389 3.31143 -5.67324
HEad  -34.8685 -6.95421 0.148076
LeftShoulder1  5.25225 -25.3337 -10.87
LeftArm  -76.7766 -55.7007 12.2538
LeftForeArm  -1.29546 -23.5579 -5.09725
LeftHand  -0.25398 0.0180481 5.50724
RightShoulder  2.84497 13.7886 9.0775
RightArm  -56.8187 47.4547 -4.82141
RightForeArm  -27.1115 31.8696 8.34641
RightHand  0.635235 3.86474 7.57331
LeftUpLeg  -80.0756 30.6719 -40.0802
LeftLeg  32.3172 -5.20703 -3.18831
LeftFoot  0.524024 -1.85273 17.6468
LeftToes  1.06244e-005 4.65856e-005 -8.18505e-006
124
root  -41.1289 37.2797 25.0167 45.1541 -77.4953 -17.1453
RightUpLeg  -64.6899 -22.3273 19.1089
RightLeg  34.364 0.481712 0.0983286
RightFoot  -2.07808 0.312737 -4.02981
RightToes  0.00048216 0.542163 -0.142577
Spine  66.9673 -3.02792 6.38956
Spine1  11.0795 3.20913 -5.81252
HEad  -33.9387 -6.63908 -0.751385
LeftShoulder1  5.14971 -24.9643 -10.743
LeftArm  -68.5881 -55.2378 4.1564
LeftForeArm  -2.73911 -26.267 -5.78595
LeftHand  -0.25398 0.0180481 5.50724
RightShoulder  3.01039 13.6016 10.355
RightArm  -52.3186 45.4719 0.0975142
RightForeArm  -30.1173 35.406 9.49009
RightHand  0.385719 1.05749 6.80249
LeftUpLeg  -76.5869 32.2282 -38.8055
LeftLeg  29.6204 -6.69504 -3.75713
LeftFoot  2.61608 -2.20116 17.7132
LeftToes  1.06244e-005 4.65856e-005 -8.18505e-006
125
root  -40.8832 37.5922 24.494 39.0141 -76.1974 -13.8362
RightUpLeg  -60.8498 -23.0026 17.9604
RightLeg  32.6675 -0.716816 -0.743836
RightFoot  -1.60873 0.355571 -4.29823
RightToes  0.00048216 0.542163 -0.142577
Spine  65.2379 -3.22254 6.0975
Spine1  12.1465 2.80206 -6.21832
HEad  -33.1516 -5.35195 -1.73217
LeftShoulder1  5.08122 -24.5407 -10.7687
LeftArm  -59.2383 -53.6479 -2.9418
LeftForeArm  -4.91017 -28.1388 -6.33864
LeftHand  -0.25398 0.0180481 5.50724
RightShoulder  2.98692 13.4372 10.3878
RightArm  -47.1126 43.0627 6.50702
RightForeArm  -32.6736 38.6459 10.6311
RightHand  0.166256 -0.846348 4.49202
LeftUpLeg  -72.4791 33.8123 -37.3845
LeftLeg  26.4718 -8.37334 -4.17564
LeftFoot  4.88353 -2.40939 16.5767
LeftToes  1.06244e-005 4.65856e-005 -8.18505e-006
126
root  -40.6781 37.8921 23.901 33.8803 -74.8865 -11.4635
RightUpLeg  -56.9885 -23.1834 16.5768
RightLeg  31.2397 -1.79061 -1.41867
RightFoot  -0.821741 0.422279 -4.63834
RightToes  0.00048216 0.542163 -0.142577
Spine  63.0877 -3.2578 5.36126
Spine1  13.7129 2.12244 -6.17157
HEad  -32.7653 -3.29281 -3.8327
LeftShoulder1  4.5537 -23.5493 -9.38346
LeftArm  -50.6951 -49.7612 -11.8679
LeftForeArm  -6.1538 -31.378 -7.21669
LeftHand  -0.25398 0.0180481 5.50724
RightShoulder  2.68657 13.3902 8.46284
RightArm  -41.7733 40.0737 14.6291
RightForeArm  -33.3867 42.3581 12.0025
RightHand  0.0514001 -2.126 2.46685
LeftUpLeg  -68.3533 35.4507 -35.8157
LeftLeg  23.1106 -10.1293 -4.36618
LeftFoot  7.10392 -2.48292 14.9327
LeftToes  1.06244e-005 4.65856e-005 -8.18505e-006
127
root  -40.5393 38.1469 23.235 30.3024 -73.3632 -10.6697
RightUpLeg  -52.6661 -22.0185 14.4215
RightLeg  30.1695 -1.37347 -1.10943
RightFoot  -0.102004 0.465091 -4.73623
RightToes  0.00048216 0.542163 -0.142577
Spine  61.0804 -3.09712 5.31763
Spine1  13.8587 2.20489 -6.3182
HEad  -31.6281 -1.8874 -6.16984
LeftShoulder1  5.01074 -23.3023 -11.3939
LeftArm  -41.7905 -45.6293 -18.5643
LeftForeArm  -6.89995 -34.7431 -8.17269
LeftHand  -0.25398 0.0180481 5.50724
RightShoulder  2.94189 13.3421 10.2123
RightArm  -35.7313 35.406 19.2858
RightForeArm  -32.8433 47.4675 14.181
RightHand  -0.00270223 -3.11581 1.10087
LeftUpLeg  -64.1932 36.9363 -33.3806
LeftLeg  19.9802 -11.5997 -4.34578
LeftFoot  9.20754 -2.45607 13.1774
LeftToes  1.06244e-005 4.65856e-005 -8.18505e-006
128
root  -40.4532 38.347 22.5126 27.3601 -71.631 -10.5945
RightUpLeg  -47.8575 -17.9495 10.3565
RightLeg  30.0693 1.35275 0.612616
RightFoot  0.198208 0.315156 -3.11678
RightToes  0.00048216 0.542163 -0.142577
Spine  59.436 -2.47922 5.76079
Spine1  12.605 2.80056 -5.68225
HEad  -30.1873 -0.320495 -8.60675
LeftShoulder1  6.56068 -23.685 -17.3841
LeftArm  -33.4488 -40.9076 -22.5792
LeftForeArm  -6.30005 -38.7222 -9.36374
LeftHand  -0.25398 0.0180481 5.50724
RightShoulder  3.54745 12.983 14.6828
RightArm  -30.0165 29.3754 20.688
RightForeArm  -30.7202 53.7993 17.5654
RightHand  -0.0319586 -3.91011 -0.261628
LeftUpLeg  -58.4169 36.9036 -27.7569
LeftLeg  17.0742 -10.5945 -4.48803
LeftFoot  11.3032 -2.34226 11.3137
LeftToes  1.06244e-005 4.65856e-005 -8.18505e-006
129
root  -40.3889 38.4702 21.7362 23.9504 -69.7874 -10.1673
RightUpLeg  -43.4438 -10.4005 4.61453
RightLeg  31.7641 5.57541 3.49769
RightFoot  -0.620028 -0.0971487 1.08177
RightToes  0.00048216 0.542163 -0.142577
Spine  57.6037 -2.38123 5.51646
Spine1  12.422 2.54801 -5.18282
HEad  -30.3565 3.70167 -11.1639
LeftShoulder1  7.33751 -22.4289 -21.8419
LeftArm  -28.8567 -34.2218 -25.0164
LeftForeArm  -4.86713 -44.5414 -11.3458
LeftHand  -0.25398 0.0180481 5.50724
RightShoulder  3.75017 12.618 16.5931
RightArm  -26.4289 24.6152 24.2479
RightForeArm  -25.8661 59.8572 21.9922
RightHand  -0.0388703 -5.06215 -1.45929
LeftUpLeg  -49.5493 32.8105 -16.6759
LeftLeg  14.1183 -3.95412 -5.4085
LeftFoot  13.2894 -2.22417 9.78089
LeftToes  1.06244e-005 4.65856e-005 -8.18505e-006
130
root  -40.3655 38.4707 20.8728 18.9686 -67.4637 -8.51515
RightUpLeg  -39.761 -2.3476 -0.538104
RightLeg  35.0171 9.83026 7.09706
RightFoot  -3.4113 -0.391954 5.32403
RightToes  0.00048216 0.542163 -0.142577
Spine  56.1225 -2.49691 4.83115
Spine1  11.9478 1.95153 -4.62859
HEad  -29.8045 7.88781 -14.4331
LeftShoulder1  7.69517 -21.0022 -25.1132
LeftArm  -25.7763 -26.455 -26.619
LeftForeArm  -3.28907 -50.6242 -13.9858
LeftHand  -0.25398 0.0180481 5.50724
RightShoulder  3.90752 12.2271 18.3054
RightArm  -23.3744 20.0143 27.3194
RightForeArm  -19.0588 65.1657 27.6286
RightHand  -0.0248719 -7.18146 -1.68214
LeftUpLeg  -41.5391 25.9021 -6.47715
LeftLeg  11.6704 3.85776 -6.48094
LeftFoot  14.8253 -2.14465 8.81093
LeftToes  1.06244e-005 4.65856e-005 -8.18505e-006
131
root  -40.4199 38.3998 19.9124 12.9655 -64.0893 -6.10943
RightUpLeg  -35.7747 2.59914 -3.07774
RightLeg  37.7649 12.0373 9.57378
RightFoot  -7.177 -0.280381 6.09744
RightToes  0.00048216 0.542163 -0.142577
Spine  54.9819 -2.79518 4.09028
Spine1  11.2616 0.859163 -3.54991
HEad  -28.4391 11.9837 -18.3662
LeftShoulder1  7.9624 -19.8807 -27.9004
LeftArm  -23.6531 -18.0512 -27.158
LeftForeArm  -1.20612 -56.5258 -17.3331
LeftHand  -0.25398 0.0180481 5.50724
RightShoulder  4.07808 11.8702 20.1242
RightArm  -20.7479 15.3816 29.4123
RightForeArm  -10.0061 69.5155 34.6253
RightHand  -0.0509582 -10.1095 -0.574962
LeftUpLeg  -35.7135 18.8467 -0.205964
LeftLeg  9.58317 9.14771 -7.06589
LeftFoot  16.1088 -1.81987 7.05001
LeftToes  1.06244e-005 4.65856e-005 -8.18505e-006
132
root  -40.5355 38.3875 18.9061 7.71028 -59.5681 -3.983
RightUpLeg  -31.465 3.76864 -3.11727
RightLeg  38.0561 10.7794 8.68704
RightFoot  -9.76295 -0.116932 3.68657
RightToes  0.00048216 0.542163 -0.142577
Spine  54.0425 -3.26257 4.09038
Spine1  10.1122 -0.467361 -1.93686
HEad  -27.7466 16.8611 -21.1312
LeftShoulder1  8.71702 -18.8202 -32.9508
LeftArm  -21.4171 -10.9689 -24.6671
LeftForeArm  1.85437 -61.7003 -21.4789
LeftHand  -0.25398 0.0180481 5.50724
RightShoulder  4.24116 11.3097 22.3779
RightArm  -18.6787 10.2729 30.2472
RightForeArm  2.15331 73.2327 44.2492
RightHand  -0.196611 -13.3762 1.37765
LeftUpLeg  -31.2548 13.2439 2.59635
LeftLeg  6.60799 11.0025 -7.30507
LeftFoot  17.2995 -0.791525 2.6921
LeftToes  1.06244e-005 4.65856e-005 -8.18505e-006
133
root  -40.6684 38.4401 17.9131 3.88667 -54.5956 -2.30837
RightUpLeg  -28.2434 2.7345 -2.22507
RightLeg  36.9354 7.06739 5.41768
RightFoot  -10.2725 -0.0722102 0.682257
RightToes  0.00048216 0.542163 -0.142577
Spine  52.649 -3.65621 4.74778
Spine1  8.80198 -1.34376 -0.567868
HEad  -26.9318 21.0971 -23.4361
LeftShoulder1  8.73437 -18.1668 -34.2158
LeftArm  -20.8786 -3.96755 -26.4122
LeftForeArm  8.86265 -67.1385 -27.5075
LeftHand  -0.25398 0.0180481 5.50724
RightShoulder  4.26825 10.4608 24.4153
RightArm  -17.6073 4.9268 30.2997
RightForeArm  18.0394 76.199 57.9736
RightHand  -0.459428 -16.6771 3.35142
LeftUpLeg  -27.7023 8.62673 3.82077
LeftLeg  2.94157 11.7176 -7.46549
LeftFoot  16.7186 0.887553 -4.02382
LeftToes  1.06244e-005 4.65856e-005 -8.18505e-006
134
root  -40.7706 38.5661 16.9651 1.48068 -49.7799 -1.05945
RightUpLeg  -26.5221 0.814715 -1.53401
RightLeg  35.7153 3.67172 2.57293
RightFoot  -9.09131 -0.0423636 -1.00609
RightToes  0.00048216 0.542163 -0.142577
Spine  49.736 -4.04104 5.8407
Spine1  9.34437 -1.38679 -0.76346
HEad  -27.3927 24.417 -26.126
LeftShoulder1  8.92585 -17.8205 -35.7481
LeftArm  -20.7396 0.150736 -27.0749
LeftForeArm  16.9265 -71.2107 -34.6037
LeftHand  -0.25398 0.0180481 5.50724
RightShoulder  4.34433 9.92557 26.2803
RightArm  -18.0316 0.684873 29.719
RightForeArm  33.6187 77.7442 72.7362
RightHand  -0.71369 -19.3864 4.57562
LeftUpLeg  -24.9346 5.64013 3.87502
LeftLeg  -1.06003 12.4093 -7.39328
LeftFoot  13.3623 2.19061 -10.3865
LeftToes  1.06244e-005 4.65856e-005 -8.18505e-006
